<?xml version="1.0" standalone="no"?>
<!DOCTYPE svg PUBLIC "-//W3C//DTD SVG 20010904//EN"
 "http://www.w3.org/TR/2001/REC-SVG-20010904/DTD/svg10.dtd">
<svg version="1.0" xmlns="http://www.w3.org/2000/svg"
 width="400.000000pt" height="400.000000pt" viewBox="0 0 400.000000 400.000000"
 preserveAspectRatio="xMidYMid meet">
<metadata>
Created by potrace 1.14, written by Peter Selinger 2001-2017
</metadata>
<g transform="translate(0.000000,400.000000) scale(0.100000,-0.100000)"
fill="#000000" stroke="none">
<path d="M1974 3732 c-105 -69 -222 -162 -232 -184 -2 -4 -17 -22 -33 -40 -44
-48 -106 -143 -130 -197 -11 -25 -24 -55 -29 -66 -16 -36 -50 -159 -57 -205
-17 -110 -1 -317 28 -372 6 -11 8 -22 6 -25 -3 -2 6 -29 19 -59 13 -30 24 -61
24 -69 0 -8 5 -15 10 -15 6 0 10 -5 10 -11 0 -5 23 -58 52 -117 29 -59 52
-109 53 -112 0 -3 3 -9 6 -15 30 -49 43 -195 26 -285 -4 -25 -10 -65 -12 -89
-3 -24 -9 -49 -13 -55 -5 -6 -10 -19 -11 -28 -3 -40 -5 -48 -11 -48 -4 0 -7
37 -7 82 -1 115 -14 207 -33 233 -4 6 -13 28 -20 49 -15 47 -70 149 -82 154
-4 2 -8 8 -8 14 0 18 -74 77 -143 113 -169 88 -298 193 -369 300 -28 43 -31
45 -44 27 -16 -23 -27 -96 -27 -182 0 -63 15 -110 45 -142 55 -56 93 -116 104
-160 1 -5 2 -9 3 -10 12 -15 18 -182 9 -218 -11 -40 -23 -67 -48 -110 -29 -49
-85 -209 -95 -270 -3 -19 -8 -48 -11 -65 -7 -35 -7 -181 0 -211 23 -110 51
-162 126 -231 37 -35 41 -42 22 -38 -57 11 -76 22 -139 84 -35 34 -78 131 -90
206 -7 44 1 197 11 214 3 5 8 26 11 47 3 22 9 53 12 69 4 17 7 32 8 35 1 3 4
27 9 53 4 27 9 56 11 65 3 10 9 35 14 57 19 78 22 101 25 210 4 100 3 107 -10
78 -7 -17 -16 -46 -19 -64 -3 -18 -11 -39 -17 -46 -6 -7 -8 -13 -5 -13 4 0 -2
-20 -13 -45 -11 -25 -20 -49 -20 -53 -1 -31 -14 -72 -23 -72 -6 0 -8 -3 -5 -6
4 -3 -2 -24 -12 -47 -10 -23 -16 -45 -14 -49 3 -4 0 -8 -5 -8 -6 0 -11 -5 -11
-12 0 -6 -20 -61 -44 -122 -38 -95 -58 -155 -58 -176 0 -3 -4 -10 -9 -16 -27
-33 -30 -307 -4 -429 57 -273 200 -478 448 -645 115 -77 293 -157 390 -176 11
-2 35 -8 54 -15 19 -6 44 -12 56 -13 12 -2 36 -6 52 -9 68 -15 426 -29 449
-18 5 2 29 5 53 7 24 1 56 5 71 9 15 3 38 8 52 10 51 10 66 13 93 24 15 6 27
7 27 4 0 -4 5 -2 12 5 7 7 18 12 25 12 7 0 32 8 56 19 23 10 56 24 72 30 69
29 241 156 340 250 105 101 205 227 240 303 12 26 27 53 32 60 17 20 63 139
69 178 3 19 9 37 13 40 3 3 7 10 8 15 35 223 34 445 -3 595 -3 14 -7 32 -9 40
-1 8 -4 22 -7 30 -3 8 -13 40 -23 70 -27 84 -92 228 -157 345 -31 56 -144 222
-176 258 -43 48 -206 210 -233 232 -80 66 -257 216 -283 241 -6 5 -18 13 -27
16 -11 4 -6 -13 19 -60 34 -66 93 -163 113 -185 42 -49 126 -177 161 -247 39
-78 42 -91 42 -160 0 -78 -10 -143 -25 -171 -4 -9 -6 -26 -4 -38 6 -30 -11
-17 -19 14 -4 14 -27 68 -51 121 -25 53 -45 100 -45 104 0 5 -3 10 -7 12 -7 3
-46 75 -47 88 -1 3 -11 20 -24 38 -13 17 -20 32 -16 32 4 0 0 8 -8 18 -9 9
-41 55 -73 101 -31 46 -62 89 -68 96 -92 98 -232 283 -269 356 -70 140 -85
193 -91 326 -1 24 -5 43 -8 43 -8 0 9 115 26 172 15 51 49 120 74 151 29 35
-32 17 -105 -31z"/>
</g>
</svg>
